<svg xmlns="http://www.w3.org/2000/svg" viewBox="0 0 600 440"><defs><linearGradient id="bg" x2="1" y2="1"><stop stop-color="#182c48"/><stop offset="1" stop-color="#304e78"/></linearGradient></defs><rect width="600" height="440" rx="24" fill="url(#bg)"/><circle cx="300" cy="186" r="112" fill="#456890" opacity=".4"/><path d="M185 378v-48c0-74 230-74 230 0v48" fill="#88aada"/><path d="M253 265v36q47 40 94 0v-36" fill="#ca926c"/><ellipse cx="300" cy="190" rx="76" ry="95" fill="#e3b28e"/><path d="M223 182q-13-104 82-104 90 0 72 113l-17-35q-72 4-103-35l-28 63" fill="#263444"/><path d="M257 179h23m42 0h23" stroke="#493b36" stroke-width="5" stroke-linecap="round"/><circle cx="270" cy="197" r="4" fill="#263444"/><circle cx="335" cy="197" r="4" fill="#263444"/><path d="M285 233q17 16 36 0" fill="none" stroke="#884e43" stroke-width="4" stroke-linecap="round"/><path d="M301 205l-5 16h11" fill="none" stroke="#b97e60" stroke-width="3"/><rect x="225" y="373" width="150" height="44" rx="22" fill="#0e2138"/><g stroke="#b8f36a" stroke-width="4" stroke-linecap="round"><path d="M255 390v9m12-17v24m12-21v17m12-26v30m12-21v16m12-20v25m12-17v9m12-21v30"/></g></svg>